<svg xmlns="http://www.w3.org/2000/svg" viewBox="0 0 123 123" width="123" height="123">
	<style>
		tspan { white-space:pre }
		.shp0 { fill: #ff9642 } 
	</style>
	<path id="Layer" fill-rule="evenodd" class="shp0" d="M122.88 92.13C122.89 95.41 120.83 98.23 117.88 99.42L117.89 99.43L63.25 121.52C62.26 121.92 61.2 122.12 60.13 122.12C60.02 122.12 59.91 122.12 59.8 122.11C59.33 122.19 58.85 122.24 58.38 122.24C57.32 122.24 56.27 122.03 55.3 121.62L4.94 100.46L4.94 100.45C2.03 99.22 -0.01 96.32 0 92.94L0.3 30.86C0.26 30.2 0.3 29.53 0.42 28.87C0.44 27.92 0.64 26.99 1 26.11C1.84 24.07 3.47 22.56 5.42 21.78L5.42 21.77L57.98 0.6C60.12 -0.26 62.42 -0.17 64.38 0.67L116.85 19.64C119.99 20.77 121.98 23.6 122.12 26.65C122.41 27.49 122.57 28.37 122.57 29.25L122.88 92.13ZM51.9 53.69L9.82 35.5L8.93 90.49L51.51 108.46L51.9 53.69ZM66.55 53.7L66.92 108.41L113.86 90.87L113.58 35.5L66.55 53.7Z" />
</svg>